<svg width="17" height="13" viewBox="0 0 17 13" fill="none" xmlns="http://www.w3.org/2000/svg">
<path d="M17 1.54204C16.3748 1.80262 15.7033 1.97869 14.9972 2.05828C15.7257 1.64824 16.2707 1.00289 16.5306 0.242638C15.8461 0.625055 15.0971 0.894236 14.3159 1.03848C13.7906 0.510874 13.0948 0.161171 12.3366 0.0436601C11.5784 -0.0738508 10.8001 0.0474051 10.1226 0.388602C9.44514 0.729799 8.90638 1.27185 8.58996 1.93059C8.27354 2.58934 8.19718 3.32792 8.37272 4.03167C6.98589 3.96617 5.6292 3.6271 4.3907 3.03646C3.1522 2.44581 2.05956 1.6168 1.1837 0.60323C0.884216 1.08918 0.712014 1.65261 0.712014 2.25266C0.71168 2.79284 0.853094 3.32474 1.12371 3.80118C1.39432 4.27762 1.78577 4.68386 2.26332 4.98386C1.70949 4.96728 1.16788 4.82651 0.683564 4.57327V4.61552C0.683508 5.37315 0.962105 6.10746 1.47208 6.69385C1.98206 7.28025 2.69201 7.68262 3.48146 7.83268C2.96769 7.96348 2.42904 7.98274 1.90619 7.88902C2.12893 8.54092 2.5628 9.11097 3.14706 9.51938C3.73133 9.9278 4.43674 10.1541 5.16454 10.1667C3.92906 11.079 2.40325 11.5739 0.832555 11.5717C0.554324 11.5718 0.276328 11.5565 0 11.5259C1.59434 12.4902 3.45027 13.002 5.34572 13C11.7621 13 15.2698 8.001 15.2698 3.66545C15.2698 3.52459 15.266 3.38232 15.2593 3.24147C15.9416 2.77733 16.5305 2.20258 16.9985 1.54415L17 1.54204Z" fill="#A6A6A6"/>
</svg>
