<svg width="50" height="50" viewBox="0 0 50 50" fill="none" xmlns="http://www.w3.org/2000/svg">
    <g filter="url(#filter0_d_209_10)">
        <path fill-rule="evenodd" clip-rule="evenodd" d="M25 39.9C35.438 39.9 43.9 31.438 43.9 21C43.9 10.5619 35.438 2.1 25 2.1C14.5619 2.1 6.1 10.5619 6.1 21C6.1 31.438 14.5619 39.9 25 39.9ZM25 42C36.5983 42 46 32.5983 46 21C46 9.4017 36.5983 0 25 0C13.4017 0 4 9.4017 4 21C4 32.5983 13.4017 42 25 42Z" fill="#C4C4C4"/>
        <path d="M12.4 33.2115C12.4 32.1269 13.2106 31.2102 14.29 31.0905C22.3908 30.1938 27.646 30.2747 35.7289 31.1105C36.1326 31.1528 36.5151 31.3119 36.8299 31.5681C37.1446 31.8243 37.3779 32.1666 37.5013 32.5533C37.6247 32.9399 37.6328 33.3541 37.5247 33.7453C37.4165 34.1365 37.1968 34.4877 36.8923 34.7561C27.3531 43.071 21.9015 42.9566 13.072 34.7645C12.6415 34.3655 12.4 33.7985 12.4 33.2126V33.2115Z" fill="#C4C4C4"/>
        <path fill-rule="evenodd" clip-rule="evenodd" d="M35.6207 32.1541C27.6019 31.3246 22.4222 31.2469 14.4044 32.1342C14.1405 32.1649 13.8972 32.292 13.7211 32.4909C13.545 32.6899 13.4485 32.9468 13.45 33.2125C13.45 33.5128 13.5749 33.7974 13.786 33.9948C18.1624 38.0541 21.4783 39.8884 24.7196 39.9C27.9725 39.9115 31.4669 38.0919 36.2024 33.9654C36.3529 33.8315 36.4612 33.6568 36.5142 33.4625C36.5672 33.2682 36.5626 33.0626 36.501 32.8709C36.4394 32.6792 36.3234 32.5094 36.1671 32.3824C36.0108 32.2553 35.821 32.1764 35.6207 32.1552V32.1541ZM14.1745 30.0468C22.3603 29.1406 27.6922 29.2225 35.8381 30.0657C36.4453 30.1291 37.0209 30.3681 37.4943 30.7536C37.9678 31.139 38.3185 31.6542 38.5037 32.2359C38.6889 32.8177 38.7005 33.4408 38.537 34.029C38.3735 34.6172 38.042 35.145 37.5832 35.5477C32.7794 39.7351 28.7789 42.0157 24.7133 42C20.6362 41.9853 16.8121 39.6658 12.359 35.5341C12.0402 35.2371 11.786 34.8776 11.6124 34.478C11.4388 34.0783 11.3495 33.6472 11.35 33.2115C11.3485 32.4286 11.6358 31.6727 12.157 31.0886C12.6782 30.5045 13.3965 30.1331 14.1745 30.0457V30.0468Z" fill="#C4C4C4"/>
        <path d="M33.4 16.8C33.4 19.0278 32.515 21.1644 30.9397 22.7397C29.3644 24.315 27.2278 25.2 25 25.2C22.7722 25.2 20.6356 24.315 19.0603 22.7397C17.485 21.1644 16.6 19.0278 16.6 16.8C16.6 14.5722 17.485 12.4356 19.0603 10.8603C20.6356 9.28501 22.7722 8.40001 25 8.40001C27.2278 8.40001 29.3644 9.28501 30.9397 10.8603C32.515 12.4356 33.4 14.5722 33.4 16.8Z" fill="#C4C4C4"/>
        <path fill-rule="evenodd" clip-rule="evenodd" d="M25 23.1C26.6708 23.1 28.2733 22.4363 29.4548 21.2548C30.6362 20.0733 31.3 18.4709 31.3 16.8C31.3 15.1291 30.6362 13.5267 29.4548 12.3452C28.2733 11.1638 26.6708 10.5 25 10.5C23.3291 10.5 21.7267 11.1638 20.5452 12.3452C19.3637 13.5267 18.7 15.1291 18.7 16.8C18.7 18.4709 19.3637 20.0733 20.5452 21.2548C21.7267 22.4363 23.3291 23.1 25 23.1ZM25 25.2C27.2278 25.2 29.3644 24.315 30.9397 22.7397C32.515 21.1644 33.4 19.0278 33.4 16.8C33.4 14.5722 32.515 12.4356 30.9397 10.8603C29.3644 9.28501 27.2278 8.40001 25 8.40001C22.7722 8.40001 20.6356 9.28501 19.0603 10.8603C17.485 12.4356 16.6 14.5722 16.6 16.8C16.6 19.0278 17.485 21.1644 19.0603 22.7397C20.6356 24.315 22.7722 25.2 25 25.2Z" fill="#C4C4C4"/>
    </g>
    <defs>
        <filter id="filter0_d_209_10" x="0" y="0" width="50" height="50.0001" filterUnits="userSpaceOnUse" color-interpolation-filters="sRGB">
            <feFlood flood-opacity="0" result="BackgroundImageFix"/>
            <feColorMatrix in="SourceAlpha" type="matrix" values="0 0 0 0 0 0 0 0 0 0 0 0 0 0 0 0 0 0 127 0" result="hardAlpha"/>
            <feOffset dy="4"/>
            <feGaussianBlur stdDeviation="2"/>
            <feComposite in2="hardAlpha" operator="out"/>
            <feColorMatrix type="matrix" values="0 0 0 0 0 0 0 0 0 0 0 0 0 0 0 0 0 0 0.1 0"/>
            <feBlend mode="normal" in2="BackgroundImageFix" result="effect1_dropShadow_209_10"/>
            <feBlend mode="normal" in="SourceGraphic" in2="effect1_dropShadow_209_10" result="shape"/>
        </filter>
    </defs>
</svg>
