<svg width="25" height="24" viewBox="0 0 25 24" fill="none" xmlns="http://www.w3.org/2000/svg">
<path d="M16.2492 18.9468C17.3295 19.7699 18.6462 20.2139 19.999 20.2115C21.3514 20.2139 22.6678 19.7708 23.7488 18.9493V23.0505C23.7491 23.2128 23.7082 23.3724 23.6301 23.514C23.5519 23.6557 23.439 23.7747 23.3023 23.8597C23.1655 23.9446 23.0095 23.9927 22.8491 23.9992C22.6888 24.0058 22.5294 23.9706 22.3864 23.897L22.2739 23.8275L19.999 22.2204L17.7241 23.8275C17.5927 23.9203 17.44 23.9774 17.2806 23.9935C17.1212 24.0096 16.9603 23.9841 16.8134 23.9195C16.6664 23.8549 16.5384 23.7533 16.4413 23.6244C16.3443 23.4954 16.2816 23.3436 16.2592 23.1832L16.2504 23.0505L16.2492 18.9481V18.9468ZM21.5614 4.28129e-09C22.4367 -4.38916e-05 23.2791 0.33746 23.9167 0.943668C24.5543 1.54988 24.939 2.37912 24.9925 3.26225L24.9988 3.47451L25 10.1026C24.4931 9.42046 23.8555 8.84853 23.1251 8.42094L23.1238 3.47451C23.124 3.08352 22.9807 2.70637 22.7216 2.41603C22.4626 2.12569 22.1062 1.9428 21.7214 1.90277L21.5614 1.89519H3.43733C3.05052 1.89501 2.67741 2.03987 2.39017 2.30173C2.10294 2.5636 1.92201 2.92385 1.88241 3.31279L1.87491 3.47451V15.4774C1.87491 16.2948 2.48988 16.9682 3.27734 17.0478L3.43733 17.0567H14.5868C14.7118 17.274 14.8493 17.4837 14.9993 17.6834V18.9519H3.43733C2.56181 18.9519 1.71928 18.6142 1.08167 18.0077C0.444053 17.4013 0.0594176 16.5717 0.00624983 15.6884L4.23548e-09 15.4774V3.47451C-4.34219e-05 2.58973 0.333849 1.73826 0.93357 1.09378C1.53329 0.449301 2.35366 0.0603696 3.22734 0.00631744L3.43733 4.28129e-09H21.5614ZM19.999 8.83915C21.325 8.83915 22.5967 9.3716 23.5344 10.3194C24.472 11.2672 24.9988 12.5526 24.9988 13.893C24.9988 15.2333 24.472 16.5188 23.5344 17.4666C22.5967 18.4144 21.325 18.9468 19.999 18.9468C18.673 18.9468 17.4013 18.4144 16.4636 17.4666C15.526 16.5188 14.9993 15.2333 14.9993 13.893C14.9993 12.5526 15.526 11.2672 16.4636 10.3194C17.4013 9.3716 18.673 8.83915 19.999 8.83915ZM11.5619 11.9978C11.7994 11.9979 12.0281 12.0891 12.2016 12.253C12.3752 12.4169 12.4807 12.6413 12.4969 12.8808C12.5131 13.1203 12.4387 13.3571 12.2888 13.5434C12.139 13.7296 11.9247 13.8514 11.6894 13.8841L11.5619 13.893H5.9372C5.69969 13.8929 5.47105 13.8017 5.2975 13.6378C5.12394 13.4739 5.01841 13.2495 5.00222 13.01C4.98603 12.7704 5.06039 12.5336 5.21028 12.3474C5.36017 12.1612 5.57441 12.0394 5.80971 12.0066L5.9372 11.9978H11.5619ZM19.0615 5.04878C19.2991 5.04885 19.5277 5.14005 19.7013 5.30396C19.8748 5.46787 19.9803 5.69225 19.9965 5.93178C20.0127 6.17131 19.9384 6.40812 19.7885 6.59436C19.6386 6.78061 19.4243 6.90239 19.189 6.93512L19.0615 6.94396H5.9372C5.69969 6.94389 5.47105 6.85268 5.2975 6.68878C5.12394 6.52487 5.01841 6.30049 5.00222 6.06096C4.98603 5.82143 5.06039 5.58462 5.21028 5.39838C5.36017 5.21213 5.57441 5.09035 5.80971 5.05762L5.9372 5.04878H19.0615Z" fill="#88B5DF"/>
</svg>
